<svg xmlns="http://www.w3.org/2000/svg" viewBox="0 0 501.07 501"><defs><style>.cls-1{fill:#70a4a2;}.cls-2{fill:#f1ded4;}</style></defs><title>Fichier 7</title><g id="Calque_2" data-name="Calque 2"><g id="Calque_2-2" data-name="Calque 2"><rect class="cls-1" x="1" width="500" height="500"/><path class="cls-2" d="M147.43,201.93s29.71-5.24,28.72,41.93,39.6,55.1,58.42,44.21c-14.86-10.89-25-20.17-22.78-47.46S195,178.48,147.43,201.93Z"/><path class="cls-2" d="M207.43,201.93s29.71-5.24,28.72,41.93,39.6,55.1,58.42,44.21c-14.86-10.89-25-20.17-22.78-47.46S255,178.48,207.43,201.93Z"/><path class="cls-2" d="M267.43,201.93s29.71-5.24,28.72,41.93,39.6,55.1,58.42,44.21c-14.86-10.89-25-20.17-22.78-47.46S315,178.48,267.43,201.93Z"/><polygon class="cls-2" points="401 0 501.07 100.07 501.07 0 401 0"/><polygon class="cls-2" points="100 501 0 401 0 501 100 501"/></g></g></svg>